<svg width="137" height="41" viewBox="0 0 137 41" fill="none" xmlns="http://www.w3.org/2000/svg">
<path d="M44.8693 32V2.90909H50.1392V27.5824H62.9517V32H44.8693ZM76.8153 32.4261C74.6847 32.4261 72.8381 31.9574 71.2756 31.0199C69.7131 30.0824 68.5009 28.7708 67.6392 27.0852C66.7869 25.3996 66.3608 23.4299 66.3608 21.1761C66.3608 18.9223 66.7869 16.9479 67.6392 15.2528C68.5009 13.5578 69.7131 12.2415 71.2756 11.304C72.8381 10.3665 74.6847 9.89773 76.8153 9.89773C78.946 9.89773 80.7926 10.3665 82.3551 11.304C83.9176 12.2415 85.125 13.5578 85.9773 15.2528C86.839 16.9479 87.2699 18.9223 87.2699 21.1761C87.2699 23.4299 86.839 25.3996 85.9773 27.0852C85.125 28.7708 83.9176 30.0824 82.3551 31.0199C80.7926 31.9574 78.946 32.4261 76.8153 32.4261ZM76.8438 28.3068C77.9991 28.3068 78.965 27.9896 79.7415 27.3551C80.518 26.7112 81.0956 25.8494 81.4744 24.7699C81.8627 23.6903 82.0568 22.4877 82.0568 21.1619C82.0568 19.8267 81.8627 18.6193 81.4744 17.5398C81.0956 16.4508 80.518 15.5843 79.7415 14.9403C78.965 14.2964 77.9991 13.9744 76.8438 13.9744C75.66 13.9744 74.6752 14.2964 73.8892 14.9403C73.1127 15.5843 72.5303 16.4508 72.142 17.5398C71.7633 18.6193 71.5739 19.8267 71.5739 21.1619C71.5739 22.4877 71.7633 23.6903 72.142 24.7699C72.5303 25.8494 73.1127 26.7112 73.8892 27.3551C74.6752 27.9896 75.66 28.3068 76.8438 28.3068ZM101.123 40.6364C99.2763 40.6364 97.6901 40.3854 96.3643 39.8835C95.0386 39.3911 93.9732 38.7282 93.1683 37.8949C92.3634 37.0616 91.8047 36.1383 91.4922 35.125L96.1229 34.0028C96.3312 34.429 96.6342 34.8504 97.032 35.267C97.4297 35.6932 97.9647 36.0436 98.6371 36.3182C99.3189 36.6023 100.176 36.7443 101.208 36.7443C102.666 36.7443 103.874 36.3892 104.83 35.679C105.787 34.9782 106.265 33.8229 106.265 32.2131V28.0795H106.009C105.744 28.6098 105.356 29.1544 104.844 29.7131C104.343 30.2718 103.675 30.7405 102.842 31.1193C102.018 31.4981 100.981 31.6875 99.7308 31.6875C98.0547 31.6875 96.5348 31.2945 95.1712 30.5085C93.817 29.7131 92.7375 28.5294 91.9325 26.9574C91.1371 25.3759 90.7393 23.3968 90.7393 21.0199C90.7393 18.6241 91.1371 16.6023 91.9325 14.9545C92.7375 13.2973 93.8217 12.0426 95.1854 11.1903C96.549 10.3286 98.0689 9.89773 99.745 9.89773C101.023 9.89773 102.075 10.1155 102.898 10.5511C103.732 10.9773 104.395 11.4934 104.887 12.0994C105.379 12.696 105.754 13.2595 106.009 13.7898H106.293V10.1818H111.364V32.3551C111.364 34.2206 110.919 35.7642 110.029 36.9858C109.139 38.2074 107.922 39.1212 106.379 39.7273C104.835 40.3333 103.083 40.6364 101.123 40.6364ZM101.165 27.6534C102.254 27.6534 103.183 27.3883 103.95 26.858C104.717 26.3277 105.299 25.5653 105.697 24.571C106.094 23.5767 106.293 22.3835 106.293 20.9915C106.293 19.6184 106.094 18.4157 105.697 17.3835C105.308 16.3513 104.731 15.5511 103.964 14.983C103.206 14.4053 102.273 14.1165 101.165 14.1165C100.02 14.1165 99.0632 14.4148 98.2962 15.0114C97.5291 15.608 96.9515 16.4271 96.5632 17.4688C96.175 18.5009 95.9808 19.6752 95.9808 20.9915C95.9808 22.3267 96.175 23.4962 96.5632 24.5C96.9609 25.4943 97.5433 26.2708 98.3104 26.8295C99.0869 27.3788 100.039 27.6534 101.165 27.6534ZM126.151 32.4261C124.021 32.4261 122.174 31.9574 120.612 31.0199C119.049 30.0824 117.837 28.7708 116.975 27.0852C116.123 25.3996 115.697 23.4299 115.697 21.1761C115.697 18.9223 116.123 16.9479 116.975 15.2528C117.837 13.5578 119.049 12.2415 120.612 11.304C122.174 10.3665 124.021 9.89773 126.151 9.89773C128.282 9.89773 130.129 10.3665 131.691 11.304C133.254 12.2415 134.461 13.5578 135.313 15.2528C136.175 16.9479 136.606 18.9223 136.606 21.1761C136.606 23.4299 136.175 25.3996 135.313 27.0852C134.461 28.7708 133.254 30.0824 131.691 31.0199C130.129 31.9574 128.282 32.4261 126.151 32.4261ZM126.18 28.3068C127.335 28.3068 128.301 27.9896 129.077 27.3551C129.854 26.7112 130.432 25.8494 130.81 24.7699C131.199 23.6903 131.393 22.4877 131.393 21.1619C131.393 19.8267 131.199 18.6193 130.81 17.5398C130.432 16.4508 129.854 15.5843 129.077 14.9403C128.301 14.2964 127.335 13.9744 126.18 13.9744C124.996 13.9744 124.011 14.2964 123.225 14.9403C122.449 15.5843 121.866 16.4508 121.478 17.5398C121.099 18.6193 120.91 19.8267 120.91 21.1619C120.91 22.4877 121.099 23.6903 121.478 24.7699C121.866 25.8494 122.449 26.7112 123.225 27.3551C124.011 27.9896 124.996 28.3068 126.18 28.3068Z" fill="white"/>
<circle cx="16.5" cy="16.5" r="16.5" fill="#9732A6"/>
</svg>
